# Aspose.3D Wavefront OBJ Exporter
# Copyright 2004-2023 Aspose Pty Ltd.
# File created: 01/27/2024 20:11:28

mtllib material.lib
g Box007_RoadRim_0

#
# object Box007_RoadRim_0
#

v 91.38797 3.215046 5.08
v 111.70796 3.215046 5.08
v 111.70796 3.215046 -5.08
v 91.38797 3.215046 -5.08
v 91.38797 0.9661619 5.08
v 111.70796 0.9661619 5.08
v 111.70796 3.215046 5.08
v 91.38797 3.215046 5.08
v 111.70796 0.9661619 5.08
v 111.70796 0.9661619 -5.08
v 111.70796 3.215046 5.08
v 111.70796 0.9661619 -5.08
v 91.38797 0.9661619 -5.08
v 91.38797 3.215046 -5.08
v 111.70796 3.215046 -5.08
v 91.38797 0.9661619 -5.08
v 91.38797 0.9661619 5.08
v 91.38797 3.215046 5.08
v 40.613983 3.215046 5.08
v 60.933983 3.215046 5.08
v 60.933983 3.215046 -5.08
v 40.613983 3.215046 -5.08
v 40.613983 0.9661619 5.08
v 60.933983 0.9661619 5.08
v 60.933983 3.215046 5.08
v 40.613983 3.215046 5.08
v 60.933983 0.9661619 5.08
v 60.933983 0.9661619 -5.08
v 60.933983 3.215046 5.08
v 60.933983 0.9661619 -5.08
v 40.613983 0.9661619 -5.08
v 40.613983 3.215046 -5.08
v 60.933983 3.215046 -5.08
v 40.613983 0.9661619 -5.08
v 40.613983 0.9661619 5.08
v 40.613983 3.215046 5.08
v -10.160001 3.215046 5.08
v 10.159999 3.215046 5.08
v 10.159999 3.215046 -5.08
v -10.160001 3.215046 -5.08
v -10.16001 0.9661619 5.08
v 10.159989 0.9661619 5.08
v 10.159999 3.215046 5.08
v -10.160001 3.215046 5.08
v 10.159989 0.9661619 5.08
v 10.159989 0.9661619 -5.08
v 10.159999 3.215046 5.08
v 10.159989 0.9661619 -5.08
v -10.16001 0.9661619 -5.08
v -10.160001 3.215046 -5.08
v 10.159999 3.215046 -5.08
v -10.16001 0.9661619 -5.08
v -10.16001 0.9661619 5.08
v -10.160001 3.215046 5.08
v -60.89396 3.215046 5.08
v -40.57396 3.215046 5.08
v -40.57396 3.215046 -5.08
v -60.89396 3.215046 -5.08
v -60.893967 0.9661619 5.08
v -40.57396 0.9661619 5.08
v -40.57396 3.215046 5.08
v -60.89396 3.215046 5.08
v -40.57396 0.9661619 5.08
v -40.57396 0.9661619 -5.08
v -40.57396 3.215046 5.08
v -40.57396 0.9661619 -5.08
v -60.893967 0.9661619 -5.08
v -60.89396 3.215046 -5.08
v -40.57396 3.215046 -5.08
v -60.893967 0.9661619 -5.08
v -60.893967 0.9661619 5.08
v -60.89396 3.215046 5.08
v -111.62789 3.215046 5.08
v -91.30789 3.215046 5.08
v -91.30789 3.215046 -5.08
v -111.62789 3.215046 -5.08
v -111.62789 0.9661619 5.08
v -91.30789 0.9661619 5.08
v -91.30789 3.215046 5.08
v -111.62789 3.215046 5.08
v -91.30789 0.9661619 5.08
v -91.30789 0.9661619 -5.08
v -91.30789 3.215046 5.08
v -91.30789 0.9661619 -5.08
v -111.62789 0.9661619 -5.08
v -111.62789 3.215046 -5.08
v -91.30789 3.215046 -5.08
v -111.62789 0.9661619 -5.08
v -111.62789 0.9661619 5.08
v -111.62789 3.215046 5.08
# 90 vertices

vn -0.57735026 0.57735026 0.57735026
vn 0.57735026 0.57735026 0.57735026
vn 0.57735026 0.57735026 -0.57735026
vn -0.57735026 0.57735026 -0.57735026
vn -0.57735026 -0.57735026 0.57735026
vn 0.57735026 -0.57735026 0.57735026
vn 0.57735026 0.57735026 0.57735026
vn -0.57735026 0.57735026 0.57735026
vn 0.57735026 -0.57735026 0.57735026
vn 0.57735026 -0.57735026 -0.57735026
vn 0.57735026 0.57735026 0.57735026
vn 0.57735026 -0.57735026 -0.57735026
vn -0.57735026 -0.57735026 -0.57735026
vn -0.57735026 0.57735026 -0.57735026
vn 0.57735026 0.57735026 -0.57735026
vn -0.57735026 -0.57735026 -0.57735026
vn -0.57735026 -0.57735026 0.57735026
vn -0.57735026 0.57735026 0.57735026
vn -0.57735026 0.57735026 0.57735026
vn 0.57735026 0.57735026 0.57735026
vn 0.57735026 0.57735026 -0.57735026
vn -0.57735026 0.57735026 -0.57735026
vn -0.57735026 -0.57735026 0.57735026
vn 0.57735026 -0.57735026 0.57735026
vn 0.57735026 0.57735026 0.57735026
vn -0.57735026 0.57735026 0.57735026
vn 0.57735026 -0.57735026 0.57735026
vn 0.57735026 -0.57735026 -0.57735026
vn 0.57735026 0.57735026 0.57735026
vn 0.57735026 -0.57735026 -0.57735026
vn -0.57735026 -0.57735026 -0.57735026
vn -0.57735026 0.57735026 -0.57735026
vn 0.57735026 0.57735026 -0.57735026
vn -0.57735026 -0.57735026 -0.57735026
vn -0.57735026 -0.57735026 0.57735026
vn -0.57735026 0.57735026 0.57735026
vn -0.57735026 0.57735026 0.57735026
vn 0.57735026 0.57735026 0.57735026
vn 0.57735026 0.57735026 -0.57735026
vn -0.57735026 0.57735026 -0.57735026
vn -0.57735026 -0.57735026 0.57735026
vn 0.57735026 -0.57735026 0.57735026
vn 0.57735026 0.57735026 0.57735026
vn -0.57735026 0.57735026 0.57735026
vn 0.57735026 -0.57735026 0.57735026
vn 0.57735026 -0.57735026 -0.57735026
vn 0.57735026 0.57735026 0.57735026
vn 0.57735026 -0.57735026 -0.57735026
vn -0.57735026 -0.57735026 -0.57735026
vn -0.57735026 0.57735026 -0.57735026
vn 0.57735026 0.57735026 -0.57735026
vn -0.57735026 -0.57735026 -0.57735026
vn -0.57735026 -0.57735026 0.57735026
vn -0.57735026 0.57735026 0.57735026
vn -0.57735026 0.57735026 0.57735026
vn 0.57735026 0.57735026 0.57735026
vn 0.57735026 0.57735026 -0.57735026
vn -0.57735026 0.57735026 -0.57735026
vn -0.57735026 -0.57735026 0.57735026
vn 0.57735026 -0.57735026 0.57735026
vn 0.57735026 0.57735026 0.57735026
vn -0.57735026 0.57735026 0.57735026
vn 0.57735026 -0.57735026 0.57735026
vn 0.57735026 -0.57735026 -0.57735026
vn 0.57735026 0.57735026 0.57735026
vn 0.57735026 -0.57735026 -0.57735026
vn -0.57735026 -0.57735026 -0.57735026
vn -0.57735026 0.57735026 -0.57735026
vn 0.57735026 0.57735026 -0.57735026
vn -0.57735026 -0.57735026 -0.57735026
vn -0.57735026 -0.57735026 0.57735026
vn -0.57735026 0.57735026 0.57735026
vn -0.57735026 0.57735026 0.57735026
vn 0.57735026 0.57735026 0.57735026
vn 0.57735026 0.57735026 -0.57735026
vn -0.57735026 0.57735026 -0.57735026
vn -0.57735026 -0.57735026 0.57735026
vn 0.57735026 -0.57735026 0.57735026
vn 0.57735026 0.57735026 0.57735026
vn -0.57735026 0.57735026 0.57735026
vn 0.57735026 -0.57735026 0.57735026
vn 0.57735026 -0.57735026 -0.57735026
vn 0.57735026 0.57735026 0.57735026
vn 0.57735026 -0.57735026 -0.57735026
vn -0.57735026 -0.57735026 -0.57735026
vn -0.57735026 0.57735026 -0.57735026
vn 0.57735026 0.57735026 -0.57735026
vn -0.57735026 -0.57735026 -0.57735026
vn -0.57735026 -0.57735026 0.57735026
vn -0.57735026 0.57735026 0.57735026
# 90 vertex normals

vt 0 -0 0
vt 1 -0 0
vt 1 -1 0
vt 0 -1 0
vt 0 -0 0
vt 1 -0 0
vt 1 -1 0
vt 0 -1 0
vt 0 -0 0
vt 1 -0 0
vt 0 -1 0
vt 0 -0 0
vt 1 -0 0
vt 1 -1 0
vt 0 -1 0
vt 0 -0 0
vt 1 -0 0
vt 1 -1 0
vt 0 -0 0
vt 1 -0 0
vt 1 -1 0
vt 0 -1 0
vt 0 -0 0
vt 1 -0 0
vt 1 -1 0
vt 0 -1 0
vt 0 -0 0
vt 1 -0 0
vt 0 -1 0
vt 0 -0 0
vt 1 -0 0
vt 1 -1 0
vt 0 -1 0
vt 0 -0 0
vt 1 -0 0
vt 1 -1 0
vt 0 -0 0
vt 1 -0 0
vt 1 -1 0
vt 0 -1 0
vt 0 -0 0
vt 1 -0 0
vt 1 -1 0
vt 0 -1 0
vt 0 -0 0
vt 1 -0 0
vt 0 -1 0
vt 0 -0 0
vt 1 -0 0
vt 1 -1 0
vt 0 -1 0
vt 0 -0 0
vt 1 -0 0
vt 1 -1 0
vt 0 -0 0
vt 1 -0 0
vt 1 -1 0
vt 0 -1 0
vt 0 -0 0
vt 1 -0 0
vt 1 -1 0
vt 0 -1 0
vt 0 -0 0
vt 1 -0 0
vt 0 -1 0
vt 0 -0 0
vt 1 -0 0
vt 1 -1 0
vt 0 -1 0
vt 0 -0 0
vt 1 -0 0
vt 1 -1 0
vt 0 -0 0
vt 1 -0 0
vt 1 -1 0
vt 0 -1 0
vt 0 -0 0
vt 1 -0 0
vt 1 -1 0
vt 0 -1 0
vt 0 -0 0
vt 1 -0 0
vt 0 -1 0
vt 0 -0 0
vt 1 -0 0
vt 1 -1 0
vt 0 -1 0
vt 0 -0 0
vt 1 -0 0
vt 1 -1 0
# 90 texture coords

usemtl RoadRim
s 1
f 1/1/1 2/2/2 3/3/3
f 1/1/1 3/3/3 4/4/4
f 5/5/5 6/6/6 7/7/7
f 5/5/5 7/7/7 8/8/8
f 9/9/9 10/10/10 3/3/3
f 9/9/9 3/3/3 11/11/11
f 12/12/12 13/13/13 14/14/14
f 12/12/12 14/14/14 15/15/15
f 16/16/16 17/17/17 18/18/18
f 16/16/16 18/18/18 4/4/4
f 19/19/19 20/20/20 21/21/21
f 19/19/19 21/21/21 22/22/22
f 23/23/23 24/24/24 25/25/25
f 23/23/23 25/25/25 26/26/26
f 27/27/27 28/28/28 21/21/21
f 27/27/27 21/21/21 29/29/29
f 30/30/30 31/31/31 32/32/32
f 30/30/30 32/32/32 33/33/33
f 34/34/34 35/35/35 36/36/36
f 34/34/34 36/36/36 22/22/22
f 37/37/37 38/38/38 39/39/39
f 37/37/37 39/39/39 40/40/40
f 41/41/41 42/42/42 43/43/43
f 41/41/41 43/43/43 44/44/44
f 45/45/45 46/46/46 39/39/39
f 45/45/45 39/39/39 47/47/47
f 48/48/48 49/49/49 50/50/50
f 48/48/48 50/50/50 51/51/51
f 52/52/52 53/53/53 54/54/54
f 52/52/52 54/54/54 40/40/40
f 55/55/55 56/56/56 57/57/57
f 55/55/55 57/57/57 58/58/58
f 59/59/59 60/60/60 61/61/61
f 59/59/59 61/61/61 62/62/62
f 63/63/63 64/64/64 57/57/57
f 63/63/63 57/57/57 65/65/65
f 66/66/66 67/67/67 68/68/68
f 66/66/66 68/68/68 69/69/69
f 70/70/70 71/71/71 72/72/72
f 70/70/70 72/72/72 58/58/58
f 73/73/73 74/74/74 75/75/75
f 73/73/73 75/75/75 76/76/76
f 77/77/77 78/78/78 79/79/79
f 77/77/77 79/79/79 80/80/80
f 81/81/81 82/82/82 75/75/75
f 81/81/81 75/75/75 83/83/83
f 84/84/84 85/85/85 86/86/86
f 84/84/84 86/86/86 87/87/87
f 88/88/88 89/89/89 90/90/90
f 88/88/88 90/90/90 76/76/76
#50 polygons

g Box002_RoadBase_0

#
# object Box002_RoadBase_0
#

v 127 1.864954 -58.31417
v -127 1.864954 -58.314167
v -127 1.864954 58.31417
v 127 1.864954 58.314167
v -127 -3.215046 63.5
v 127 -3.215046 63.5
v 127 1.864954 63.5
v -127 1.864954 63.5
v 127 -3.215046 -63.5
v -127 -3.215046 -63.5
v -127 1.864954 -63.5
v 127 1.864954 -63.5
# 12 vertices

vn 0 1 4.440892E-16
vn 0 1 4.440892E-16
vn 0 1 4.440892E-16
vn 0 1 4.440892E-16
vn 0 -4.440892E-16 1
vn 0 -4.440892E-16 1
vn 0 0.7071068 0.7071068
vn 0 0.7071068 0.7071068
vn 0 4.440892E-16 -1
vn 0 4.440892E-16 -1
vn 0 0.7071068 -0.7071068
vn 0 0.7071068 -0.7071068
# 12 vertex normals

vt 1 -0.95916665 0
vt 0 -0.95916665 0
vt 0 -0.040833354 0
vt 1 -0.040833324 0
vt 0 -0 0
vt 1 -0 0
vt 1 -1 0
vt 0 -1 0
vt 0 -0 0
vt 1 -0 0
vt 1 -1 0
vt 0 -1 0
# 12 texture coords

usemtl RoadBase
s 2
f 91/91/91 92/92/92 93/93/93
f 91/91/91 93/93/93 94/94/94
f 95/95/95 96/96/96 97/97/97
f 95/95/95 97/97/97 98/98/98
f 99/99/99 100/100/100 101/101/101
f 99/99/99 101/101/101 102/102/102
#6 polygons

g Box002_RoadRim_0

#
# object Box002_RoadRim_0
#

v 127 1.864954 -63.5
v -127 1.864954 -63.5
v -127 1.864954 -58.314167
v 127 1.864954 -58.31417
v -127 1.864954 63.5
v 127 1.864954 63.5
v 127 1.864954 58.314167
v -127 1.864954 58.31417
# 8 vertices

vn 0 0.7071068 -0.7071068
vn 0 0.7071068 -0.7071068
vn 0 1 4.440892E-16
vn 0 1 4.440892E-16
vn 0 0.7071068 0.7071068
vn 0 0.7071068 0.7071068
vn 0 1 4.440892E-16
vn 0 1 4.440892E-16
# 8 vertex normals

vt 1 -1 0
vt 0 -1 0
vt 0 -0.95916665 0
vt 1 -0.95916665 0
vt 0 -0 0
vt 1 -0 0
vt 1 -0.040833324 0
vt 0 -0.040833354 0
# 8 texture coords

usemtl RoadRim
s 4
f 103/103/103 104/104/104 105/105/105
f 103/103/103 105/105/105 106/106/106
f 107/107/107 108/108/108 109/109/109
f 107/107/107 109/109/109 110/110/110
#4 polygons

