# Blender 3.4.1
# www.blender.org
mtllib treescaled.mtl
o tree_2
v -10.702291 0.426711 -4.338650
v -11.080521 0.426711 -4.424980
v -11.383830 0.426711 -4.183090
v -11.383830 0.426711 -3.795140
v -11.080521 0.426711 -3.553250
v -10.702291 0.426711 -3.639580
v -10.533960 0.426711 -3.989120
v -10.824309 1.190931 -4.172440
v -11.022680 1.190931 -4.217710
v -11.181760 1.190931 -4.090850
v -11.181760 1.190931 -3.887380
v -11.022680 1.190931 -3.760520
v -10.824309 1.190931 -3.805790
v -10.736031 1.190931 -3.989110
v -10.974560 0.426711 -3.989120
v -10.841960 1.641731 -4.148230
v -11.014319 1.641731 -4.187560
v -11.152530 1.641731 -4.077340
v -11.152530 1.641731 -3.900560
v -11.015550 1.641731 -3.790050
v -10.840730 1.641731 -3.829950
v -10.765261 1.641731 -3.988950
v -10.039789 4.219741 -4.834169
v -10.905900 4.303811 -5.184199
v -11.772020 4.063151 -4.834169
v -12.130780 4.193080 -3.989109
v -11.772020 4.063150 -3.144059
v -10.905900 4.303811 -2.794029
v -10.039789 4.219730 -3.144059
v -9.681030 4.414531 -3.989109
v -11.114230 6.608381 -3.989109
v -9.909660 3.054071 -5.013480
v -10.963810 2.811771 -5.437779
v -12.017970 3.039381 -5.013480
v -12.454610 2.801391 -3.989110
v -12.017970 3.039381 -2.964749
v -10.963810 2.811771 -2.540450
v -9.909660 3.054070 -2.964749
v -9.473020 2.822161 -3.989110
v -10.985550 6.166900 -3.989109
v -9.691480 1.657431 -5.256619
v -10.994261 1.940071 -5.781630
v -12.297029 1.787321 -5.256619
v -12.836649 1.975231 -3.989110
v -12.297029 1.787320 -2.721610
v -10.994261 2.013970 -2.196600
v -9.691480 1.657430 -2.721610
v -9.151860 1.791530 -3.989110
v -10.813600 5.507151 -3.989109
v -9.881330 1.320151 -5.120230
v -11.041280 1.260121 -5.588750
v -12.201231 1.515051 -5.120229
v -12.681690 1.397941 -3.989110
v -12.201231 1.515050 -2.858000
v -11.041280 1.260120 -2.389480
v -9.881330 1.320150 -2.858000
v -9.400860 1.122311 -3.989110
v -10.732260 5.095921 -3.989109
v -10.352921 5.335161 -4.595619
v -10.973480 5.246191 -4.846839
v -11.594029 5.469111 -4.595619
v -11.851070 5.340910 -3.989109
v -11.594029 5.469110 -3.382609
v -10.973480 5.246191 -3.131379
v -10.352921 5.335160 -3.382609
v -10.095881 5.151470 -3.989109
v -10.761090 7.369971 -3.989109
vn 0.2160 0.2403 -0.9464
vn 0.2182 0.1961 -0.9560
vn 0.2182 0.1954 -0.9561
vn -0.6035 0.2509 -0.7568
vn -0.6103 0.2048 -0.7653
vn -0.6103 0.2043 -0.7653
vn -0.9668 0.2556 -0.0000
vn -0.9781 0.2084 -0.0000
vn -0.9780 0.2084 -0.0000
vn -0.6035 0.2509 0.7568
vn -0.6109 0.2040 0.7650
vn -0.6108 0.2045 0.7649
vn 0.2160 0.2403 0.9464
vn 0.2183 0.1950 0.9562
vn 0.2182 0.1956 0.9561
vn 0.8764 0.2317 0.4221
vn 0.8849 0.1882 0.4260
vn 0.8851 0.1884 0.4255
vn 0.8764 0.2317 -0.4221
vn 0.8848 0.1887 -0.4261
vn 0.8848 0.1884 -0.4261
vn -0.0000 -1.0000 -0.0000
vn 0.2221 0.0610 -0.9731
vn -0.6222 0.0637 -0.7802
vn -0.9979 0.0647 -0.0000
vn -0.6243 0.0621 0.7787
vn 0.2221 0.0602 0.9732
vn 0.9006 0.0571 0.4308
vn 0.8994 0.0585 -0.4331
vn 0.0900 -0.9959 -0.0000
vn 0.3714 0.4537 -0.8101
vn -0.4356 0.3830 -0.8146
vn -0.8402 0.3536 -0.4111
vn -0.8402 0.3536 0.4111
vn -0.4356 0.3830 0.8146
vn 0.3714 0.4537 0.8101
vn 0.7543 0.4928 0.4338
vn 0.7543 0.4928 -0.4338
vn 0.0070 -1.0000 -0.0000
vn 0.2677 0.3834 -0.8839
vn -0.2737 0.3798 -0.8837
vn -0.8784 0.3834 -0.2853
vn -0.8784 0.3834 0.2853
vn -0.2737 0.3798 0.8837
vn 0.2677 0.3834 0.8839
vn 0.8739 0.3952 0.2830
vn 0.8739 0.3952 -0.2830
vn -0.0498 -0.9987 0.0103
vn 0.4158 0.3915 -0.8209
vn -0.3803 0.4306 -0.8185
vn -0.7933 0.4544 -0.4051
vn -0.7933 0.4544 0.4051
vn -0.4007 0.4346 0.8066
vn 0.4342 0.3934 0.8104
vn 0.8381 0.3748 0.3964
vn 0.8381 0.3748 -0.3964
vn -0.0837 -0.9965 -0.0000
vn 0.3372 0.3391 -0.8782
vn -0.2702 0.3890 -0.8807
vn -0.8407 0.4432 -0.3112
vn -0.8407 0.4432 0.3112
vn -0.2702 0.3890 0.8807
vn 0.3372 0.3391 0.8782
vn 0.8957 0.3001 0.3280
vn 0.8957 0.3001 -0.3280
vn -0.1073 -0.9942 -0.0000
vn 0.3136 0.3285 -0.8909
vn -0.2246 0.3841 -0.8956
vn -0.8498 0.4565 -0.2636
vn -0.8498 0.4565 0.2636
vn -0.2246 0.3841 0.8955
vn 0.3136 0.3285 0.8909
vn 0.9126 0.2736 0.3039
vn 0.9126 0.2736 -0.3039
vt 0.016071 0.010714
vt 0.314524 0.010714
vt 0.249580 0.509465
vt 0.058708 0.010714
vt 0.130299 0.480077
vt 0.101344 0.010714
vt 0.033767 0.556312
vt 0.143980 0.010714
vt 0.034233 0.678245
vt 0.186616 0.010714
vt 0.128616 0.753124
vt 0.229252 0.010714
vt 0.245488 0.727379
vt 0.271888 0.010714
vt 0.299689 0.620189
vt 0.016071 0.459516
vt 0.314524 0.459516
vt 0.551864 0.744982
vt 0.058708 0.459516
vt 0.425388 0.767084
vt 0.101344 0.459516
vt 0.327696 0.681576
vt 0.143980 0.459516
vt 0.337164 0.552022
vt 0.186616 0.459516
vt 0.443103 0.478554
vt 0.229252 0.459516
vt 0.565661 0.515098
vt 0.271888 0.459516
vt 0.612058 0.633242
vt 0.161770 0.616443
vt 0.504465 0.679671
vt 0.447031 0.688943
vt 0.404582 0.649976
vt 0.407113 0.592450
vt 0.454057 0.558629
vt 0.510707 0.574862
vt 0.533557 0.628683
vt 0.902142 0.037874
vt 0.337500 0.013087
vt 0.680481 0.013087
vt 0.839378 0.011876
vt 0.380373 0.013087
vt 0.776614 0.037874
vt 0.423245 0.013087
vt 0.750616 0.100638
vt 0.466118 0.013087
vt 0.776614 0.163402
vt 0.508990 0.013087
vt 0.839378 0.189400
vt 0.551863 0.013087
vt 0.902142 0.163402
vt 0.594736 0.013087
vt 0.928140 0.100638
vt 0.637608 0.013087
vt 0.508990 0.356068
vt 0.902142 0.037874
vt 0.337500 0.013087
vt 0.680481 0.013087
vt 0.839378 0.011876
vt 0.380373 0.013087
vt 0.776614 0.037874
vt 0.423245 0.013087
vt 0.750617 0.100638
vt 0.466118 0.013087
vt 0.776614 0.163402
vt 0.508990 0.013087
vt 0.839378 0.189399
vt 0.551863 0.013087
vt 0.902142 0.163402
vt 0.594736 0.013087
vt 0.928140 0.100638
vt 0.637608 0.013087
vt 0.508990 0.356068
vt 0.902142 0.037874
vt 0.337500 0.013087
vt 0.680481 0.013087
vt 0.839378 0.011876
vt 0.380373 0.013087
vt 0.776614 0.037874
vt 0.423245 0.013087
vt 0.750617 0.100638
vt 0.466118 0.013087
vt 0.776614 0.163402
vt 0.508990 0.013087
vt 0.839378 0.189399
vt 0.551863 0.013087
vt 0.902142 0.163402
vt 0.594736 0.013087
vt 0.928140 0.100638
vt 0.637608 0.013087
vt 0.508990 0.356068
vt 0.902142 0.037874
vt 0.337500 0.013087
vt 0.680481 0.013087
vt 0.839378 0.011876
vt 0.380373 0.013087
vt 0.776614 0.037874
vt 0.423245 0.013087
vt 0.750617 0.100638
vt 0.466118 0.013087
vt 0.776614 0.163402
vt 0.508990 0.013087
vt 0.839378 0.189399
vt 0.551863 0.013087
vt 0.902142 0.163402
vt 0.594736 0.013087
vt 0.928140 0.100638
vt 0.637608 0.013087
vt 0.508990 0.356068
vt 0.902142 0.037874
vt 0.337500 0.013087
vt 0.680481 0.013087
vt 0.839378 0.011876
vt 0.380373 0.013087
vt 0.776614 0.037874
vt 0.423245 0.013087
vt 0.750617 0.100638
vt 0.466118 0.013087
vt 0.776614 0.163402
vt 0.508990 0.013087
vt 0.839378 0.189400
vt 0.551863 0.013087
vt 0.902142 0.163402
vt 0.594736 0.013087
vt 0.928140 0.100638
vt 0.637608 0.013087
vt 0.508990 0.356068
s 1
usemtl initialShadingGroup
f 1/1/1 2/4/1 9/19/2 8/16/3
f 2/4/4 3/6/4 10/21/5 9/19/6
f 3/6/7 4/8/7 11/23/8 10/21/9
f 4/8/10 5/10/10 12/25/11 11/23/12
f 5/10/13 6/12/13 13/27/14 12/25/15
f 6/12/16 7/14/16 14/29/17 13/27/18
f 7/14/19 1/2/19 8/17/20 14/29/21
f 2/5/22 1/3/22 15/31/22
f 3/7/22 2/5/22 15/31/22
f 4/9/22 3/7/22 15/31/22
f 5/11/22 4/9/22 15/31/22
f 6/13/22 5/11/22 15/31/22
f 7/15/22 6/13/22 15/31/22
f 1/3/22 7/15/22 15/31/22
f 8/18/3 9/20/2 17/33/23 16/32/23
f 9/20/6 10/22/5 18/34/24 17/33/24
f 10/22/9 11/24/8 19/35/25 18/34/25
f 11/24/12 12/26/11 20/36/26 19/35/26
f 12/26/15 13/28/14 21/37/27 20/36/27
f 13/28/18 14/30/17 22/38/28 21/37/28
f 14/30/21 8/18/20 16/32/29 22/38/29
s 0
f 23/39/30 30/54/30 29/52/30 28/50/30 27/48/30 26/46/30 25/44/30 24/42/30
f 23/40/31 24/43/31 31/56/31
f 24/43/32 25/45/32 31/56/32
f 25/45/33 26/47/33 31/56/33
f 26/47/34 27/49/34 31/56/34
f 27/49/35 28/51/35 31/56/35
f 28/51/36 29/53/36 31/56/36
f 29/53/37 30/55/37 31/56/37
f 30/55/38 23/41/38 31/56/38
f 32/57/39 39/72/39 38/70/39 37/68/39 36/66/39 35/64/39 34/62/39 33/60/39
f 32/58/40 33/61/40 40/74/40
f 33/61/41 34/63/41 40/74/41
f 34/63/42 35/65/42 40/74/42
f 35/65/43 36/67/43 40/74/43
f 36/67/44 37/69/44 40/74/44
f 37/69/45 38/71/45 40/74/45
f 38/71/46 39/73/46 40/74/46
f 39/73/47 32/59/47 40/74/47
f 41/75/48 48/90/48 47/88/48 46/86/48 45/84/48 44/82/48 43/80/48 42/78/48
f 41/76/49 42/79/49 49/92/49
f 42/79/50 43/81/50 49/92/50
f 43/81/51 44/83/51 49/92/51
f 44/83/52 45/85/52 49/92/52
f 45/85/53 46/87/53 49/92/53
f 46/87/54 47/89/54 49/92/54
f 47/89/55 48/91/55 49/92/55
f 48/91/56 41/77/56 49/92/56
f 50/93/57 57/108/57 56/106/57 55/104/57 54/102/57 53/100/57 52/98/57 51/96/57
f 50/94/58 51/97/58 58/110/58
f 51/97/59 52/99/59 58/110/59
f 52/99/60 53/101/60 58/110/60
f 53/101/61 54/103/61 58/110/61
f 54/103/62 55/105/62 58/110/62
f 55/105/63 56/107/63 58/110/63
f 56/107/64 57/109/64 58/110/64
f 57/109/65 50/95/65 58/110/65
f 59/111/66 66/126/66 65/124/66 64/122/66 63/120/66 62/118/66 61/116/66 60/114/66
f 59/112/67 60/115/67 67/128/67
f 60/115/68 61/117/68 67/128/68
f 61/117/69 62/119/69 67/128/69
f 62/119/70 63/121/70 67/128/70
f 63/121/71 64/123/71 67/128/71
f 64/123/72 65/125/72 67/128/72
f 65/125/73 66/127/73 67/128/73
f 66/127/74 59/113/74 67/128/74
